<svg xmlns="http://www.w3.org/2000/svg" viewBox="0 0 445 445">
  <path d="M266.569 101h27c1.222 4.887-.036 7.623-1.797 12.121l-.922 2.433c-1 2.632-2.015 5.258-3.031 7.884-.7 1.832-1.398 3.666-2.096 5.5-1.398 3.67-2.801 7.337-4.21 11.003a3372.55 3372.55 0 0 0-6.174 16.206c-.851 2.247-1.704 4.493-2.557 6.74-4.334 11.402-8.61 22.826-12.888 34.249a4830.125 4830.125 0 0 1-11.626 30.787 2943.254 2943.254 0 0 0-6.762 17.89l-1.084 2.894a14953.84 14953.84 0 0 0-5.62 15.022c-1.64 4.391-3.283 8.782-4.926 13.173l-1.958 5.242c-3.113 8.343-6.243 16.672-9.583 24.926-2.62 6.487-4.94 13.033-7.131 19.674-2.098 6.176-4.65 11.286-7.635 17.256h-28c1.125-6.75 1.125-6.75 2.316-9.893l.803-2.145.873-2.278.915-2.427c.984-2.609 1.976-5.214 2.968-7.82.685-1.81 1.37-3.62 2.053-5.43a8154.4 8154.4 0 0 1 5.126-13.518 6173.8 6173.8 0 0 0 4.106-10.84 7749.455 7749.455 0 0 1 9.766-25.688c4.778-12.5 9.479-25.027 14.172-37.559 4.735-12.643 9.494-25.277 14.277-37.902a8681.98 8681.98 0 0 0 11.063-29.313l1.007-2.687a8143.54 8143.54 0 0 0 6.322-16.932c1.36-3.65 2.722-7.3 4.084-10.948l2.028-5.448c.95-2.56 1.907-5.12 2.863-7.68l.86-2.326.823-2.194.705-1.893c1.153-2.755 2.535-5.408 3.87-8.079zm44 0h27c5.622 11.244 5.622 11.244 7.805 17.227.24.653.48 1.307.729 1.98.516 1.405 1.03 2.81 1.54 4.217 1.114 3.061 2.24 6.117 3.364 9.173l1.792 4.875c3.42 9.318 6.906 18.61 10.395 27.903l1.927 5.137c4.056 10.805 8.137 21.6 12.24 32.386a4202.678 4202.678 0 0 1 7.903 20.97l.974 2.603 1.97 5.265.986 2.639.98 2.619c4.05 10.827 8.126 21.64 12.43 32.369 2.066 5.183 3.957 10.414 5.797 15.68 3.093 8.845 6.419 17.591 9.793 26.332 1.896 4.92 3.788 9.843 5.667 14.77.662 1.734 1.329 3.467 1.996 5.2l1.11 2.944.95 2.499c.652 2.212.652 2.212.652 6.212h-28c-3.065-7.355-6.074-14.675-8.875-22.125-2.96-7.83-2.96-7.83-5.984-15.633l-.903-2.3c-.54-1.372-1.083-2.744-1.628-4.114-1.933-4.916-3.694-9.886-5.438-14.871-2.698-7.699-5.554-15.326-8.493-22.936-1.425-3.691-2.84-7.385-4.257-11.08l-.874-2.278c-2.842-7.417-5.64-14.85-8.423-22.288l-.727-1.943c-1.257-3.357-2.512-6.715-3.768-10.072-3.06-8.184-6.126-16.366-9.192-24.547l-.972-2.593a8347.512 8347.512 0 0 0-12.03-31.907l-1.277-3.378a2929.09 2929.09 0 0 0-6.986-18.254 4548.539 4548.539 0 0 1-3.95-10.275c-.645-1.678-1.294-3.354-1.946-5.03-.908-2.333-1.805-4.67-2.7-7.009l-.837-2.126c-1.854-4.9-1.854-4.9-.74-8.241zm-287.25-.133 3.53-.004 3.72.012 3.719-.012 3.53.004 3.267.004c2.484.129 2.484.129 3.484 1.129.098 3.11.13 6.197.12 9.308l.003 2.997c.002 3.34-.004 6.682-.01 10.023v7.153c0 5.82-.003 11.64-.01 17.46-.007 6.77-.01 13.539-.01 20.309-.001 12.073-.01 24.146-.018 36.219-.01 11.73-.016 23.462-.02 35.192v2.19l-.005 10.875c-.01 30.091-.028 60.183-.05 90.274-4.48.029-8.958.047-13.438.063l-3.876.025-3.682.01-3.412.016C17.569 344 17.569 344 16.569 343a265.72 265.72 0 0 1-.127-9.263l-.005-2.982c-.004-3.326 0-6.65.003-9.976l-.006-7.118c-.004-5.792-.003-11.585 0-17.377.002-4.705.002-9.41 0-14.116v-6.099c-.003-12.745 0-25.491.006-38.237.004-10.949.003-21.897-.001-32.845a57458.378 57458.378 0 0 1-.004-42.155v-2.018c.002-4.702 0-9.404-.002-14.107-.003-6.323-.001-12.646.005-18.97 0-2.328 0-4.656-.002-6.984-.002-3.163 0-6.327.006-9.49l-.007-2.83c.024-7.559.024-7.559 6.884-7.566zm115 0 3.53-.004 3.72.012 3.719-.012 3.53.004 3.267.004c2.484.129 2.484.129 3.484 1.129.1 3.095.134 6.167.127 9.263l.005 2.982c.004 3.326 0 6.65-.003 9.976l.006 7.118c.004 5.792.003 11.585 0 17.377-.002 4.705-.002 9.41-.001 14.116v6.099c.004 12.745 0 25.491-.005 38.237-.004 10.949-.003 21.897 0 32.845a57458.378 57458.378 0 0 1 .005 42.155v2.018c-.002 4.702 0 9.404.002 14.107.003 6.323 0 12.646-.005 18.97 0 2.328 0 4.656.002 6.984.002 3.163-.001 6.327-.006 9.49l.007 2.83c-.02 6.319-.02 6.319-1.134 7.433-1.915.1-3.833.13-5.75.133l-3.531.004-3.72-.012-3.718.012-3.531-.004-3.266-.004c-2.484-.129-2.484-.129-3.484-1.129a265.72 265.72 0 0 1-.127-9.263l-.005-2.982c-.004-3.326 0-6.65.003-9.976l-.006-7.118c-.004-5.792-.003-11.585 0-17.377.002-4.705.002-9.41 0-14.116v-6.099c-.003-12.745 0-25.491.006-38.237.004-10.949.003-21.897-.001-32.845a57458.378 57458.378 0 0 1-.004-42.155v-2.018c.002-4.702 0-9.404-.002-14.107-.003-6.323-.001-12.646.005-18.97 0-2.328 0-4.656-.002-6.984-.002-3.163 0-6.327.006-9.49l-.007-2.83c.024-7.559.024-7.559 6.884-7.566zM81.1 100.936l3.395-.005 3.574.013 3.574-.013 3.395.005 3.138.003c2.393.13 2.393.13 3.393 1.13.098 3.11.13 6.197.12 9.308l.003 2.997c.002 3.34-.004 6.682-.01 10.023v7.153c0 5.82-.003 11.64-.01 17.46-.007 6.77-.01 13.539-.01 20.309-.001 12.073-.01 24.146-.018 36.219-.01 11.73-.016 23.462-.02 35.192v2.19l-.005 10.875c-.01 30.09-.028 60.183-.05 90.274h-27a237007.17 237007.17 0 0 1-.055-103.34v-2.191c-.005-11.73-.013-23.46-.022-35.19-.01-12.025-.015-24.052-.017-36.08-.001-6.758-.004-13.517-.012-20.276-.006-6.353-.01-12.707-.007-19.06 0-2.34-.002-4.68-.006-7.02-.005-3.178-.004-6.357-.001-9.535l-.01-2.845c.019-7.59.019-7.59 6.66-7.596z"/>
</svg>
