<svg xmlns="http://www.w3.org/2000/svg" viewBox="0 0 35.894 35.925">
  <path fill="#1e98ea" d="M.001 26.516c0-5.764.022-9.665.057-10.066a19.02 19.02 0 0 1 1.056-4.733c.327-.885 1.097-2.45 1.603-3.258C5.432 4.12 9.933 1.095 14.924.253a16.794 16.794 0 0 1 3.582-.24c2.092.065 3.827.4 5.78 1.125.826.306 2.41 1.088 3.18 1.572 4.076 2.56 6.986 6.66 8.032 11.32.325 1.448.396 2.152.396 3.929 0 1.777-.07 2.48-.396 3.928-.425 1.893-1.278 3.967-2.303 5.6-2.54 4.045-6.658 6.963-11.3 8.005-.346.077-.987.198-1.425.27l-.797.128-9.836.019-1.23.002-1.23.002-1.229.002-1.23.003-1.23.002-1.229.002-1.23.003s-.683-.007-.967-.29C-.022 35.352 0 34.75 0 34.75v-7.06zm19.487-.743c2.392-.587 4.278-2.082 5.365-4.25.88-1.755 1.033-4.075.397-5.975-.95-2.84-3.32-4.853-6.288-5.34-.824-.136-2.283-.08-3.074.118-1.555.39-2.81 1.118-3.905 2.264-1.03 1.08-1.682 2.317-2.028 3.848-.12.537-.125.675-.146 4.867l-.022 4.314s-.01.158.088.258c.096.1.258.088.258.088l4.371-.021 4.372-.02z"/>
</svg>

