<svg xmlns="http://www.w3.org/2000/svg" id="svg14" version="1.1" viewBox="0 0 48 48">
  <defs id="defs4"/>
  <path id="path245" fill="#000" stroke-width=".057" d="M6.054 32.552c0-5.764.022-9.665.057-10.066.134-1.55.523-3.295 1.056-4.733.327-.885 1.097-2.45 1.603-3.258 2.715-4.338 7.216-7.364 12.207-8.206a16.794 16.794 0 0 1 3.582-.239c2.092.064 3.827.4 5.779 1.124.827.306 2.41 1.088 3.18 1.572 4.077 2.561 6.987 6.661 8.033 11.32.325 1.448.396 2.152.396 3.929 0 1.777-.07 2.48-.396 3.928-.425 1.893-1.278 3.967-2.303 5.6-2.54 4.045-6.658 6.963-11.301 8.005-.345.077-.986.198-1.424.27l-.797.128-9.836.019-1.23.002-1.23.002-1.229.002-1.23.003-1.23.002-1.229.002-1.23.003s-.683-.007-.967-.29c-.284-.283-.262-.884-.262-.884V33.728zm19.487-.743c2.392-.587 4.278-2.082 5.365-4.25.879-1.755 1.033-4.075.397-5.975-.95-2.84-3.32-4.853-6.288-5.34-.824-.136-2.283-.08-3.074.118-1.555.39-2.811 1.118-3.905 2.264-1.03 1.08-1.682 2.317-2.028 3.848-.121.537-.125.675-.146 4.867l-.022 4.314s-.01.158.088.258c.096.1.258.088.258.088l4.371-.021 4.372-.02z"/>
</svg>
