<?xml version="1.0" encoding="UTF-8" standalone="no"?>
<svg
   role="img"
   viewBox="0 0 35.894398 35.924747"
   version="1.1"
   id="svg6"
   sodipodi:docname="reolink.svg"
   width="35.894398"
   height="35.924747"
   inkscape:version="1.2.2 (b0a8486541, 2022-12-01)"
   xmlns:inkscape="http://www.inkscape.org/namespaces/inkscape"
   xmlns:sodipodi="http://sodipodi.sourceforge.net/DTD/sodipodi-0.dtd"
   xmlns="http://www.w3.org/2000/svg"
   xmlns:svg="http://www.w3.org/2000/svg">
  <defs
     id="defs10" />
  <sodipodi:namedview
     id="namedview8"
     pagecolor="#ffffff"
     bordercolor="#000000"
     borderopacity="0.25"
     inkscape:showpageshadow="2"
     inkscape:pageopacity="0.0"
     inkscape:pagecheckerboard="0"
     inkscape:deskcolor="#d1d1d1"
     showgrid="false"
     inkscape:zoom="17.5625"
     inkscape:cx="16.113879"
     inkscape:cy="13.466192"
     inkscape:window-width="2560"
     inkscape:window-height="1019"
     inkscape:window-x="0"
     inkscape:window-y="31"
     inkscape:window-maximized="1"
     inkscape:current-layer="svg6" />
  <title
     id="title2">Reolink</title>
  <path
     d="m 0.0013959,26.515746 c 0,-5.764 0.022,-9.665 0.057,-10.066 0.134,-1.55 0.523,-3.295 1.056,-4.733 0.327,-0.885 1.097,-2.4499997 1.603,-3.2579997 2.715,-4.338 7.216,-7.364 12.2070001,-8.20600004 a 16.794,16.794 0 0 1 3.582,-0.239 c 2.092,0.064 3.827,0.4 5.779,1.12400004 0.827,0.306 2.41,1.088 3.18,1.572 4.077,2.561 6.987,6.661 8.033,11.3199997 0.325,1.448 0.396,2.152 0.396,3.929 0,1.777 -0.07,2.48 -0.396,3.928 -0.425,1.893 -1.278,3.967 -2.303,5.6 -2.54,4.045 -6.658,6.963 -11.301,8.005 -0.345,0.077 -0.986,0.198 -1.424,0.27 l -0.797,0.128 -9.8360001,0.019 -1.23,0.002 -1.23,0.002 -1.229,0.002 -1.23,0.003 -1.23,0.002 -1.229,0.002 -1.23,0.003 c 0,0 -0.683,-0.007 -0.967,-0.29 -0.284,-0.283 -0.2620000047,-0.884 -0.2620000047,-0.884 v -7.059 z m 19.4870001,-0.743 c 2.392,-0.587 4.278,-2.082 5.365,-4.25 0.879,-1.755 1.033,-4.075 0.397,-5.975 -0.95,-2.84 -3.32,-4.853 -6.288,-5.34 -0.824,-0.136 -2.283,-0.08 -3.074,0.118 -1.555,0.39 -2.811,1.118 -3.905,2.264 -1.03,1.08 -1.682,2.317 -2.0280001,3.848 -0.121,0.537 -0.125,0.675 -0.146,4.867 l -0.022,4.314 c 0,0 -0.01,0.158 0.088,0.258 0.096,0.1 0.2580001,0.088 0.2580001,0.088 l 4.371,-0.021 4.372,-0.02 z"
     id="path4" />
</svg>
