<?xml version="1.0" encoding="UTF-8" standalone="no"?>
<!-- Uploaded to: SVG Repo, www.svgrepo.com, Generator: SVG Repo Mixer Tools -->

<svg
   width="800px"
   height="800px"
   viewBox="0 0 48 48"
   version="1.1"
   id="svg14"
   sodipodi:docname="reolink-svgrepo-com.svg"
   inkscape:version="1.2.2 (b0a8486541, 2022-12-01)"
   xmlns:inkscape="http://www.inkscape.org/namespaces/inkscape"
   xmlns:sodipodi="http://sodipodi.sourceforge.net/DTD/sodipodi-0.dtd"
   xmlns="http://www.w3.org/2000/svg"
   xmlns:svg="http://www.w3.org/2000/svg">
  <sodipodi:namedview
     id="namedview16"
     pagecolor="#ffffff"
     bordercolor="#000000"
     borderopacity="0.25"
     inkscape:showpageshadow="2"
     inkscape:pageopacity="0.0"
     inkscape:pagecheckerboard="0"
     inkscape:deskcolor="#d1d1d1"
     showgrid="false"
     inkscape:zoom="0.74511377"
     inkscape:cx="558.304"
     inkscape:cy="393.89958"
     inkscape:window-width="2560"
     inkscape:window-height="1019"
     inkscape:window-x="0"
     inkscape:window-y="31"
     inkscape:window-maximized="1"
     inkscape:current-layer="svg14" />
  <defs
     id="defs4">
    <style
       id="style2">.a{fill:none;stroke:#000000;stroke-linecap:round;stroke-linejoin:round;}</style>
  </defs>
  <path
     style="fill:#000000;stroke-width:0.0569395"
     d="m 6.053769,32.55165 c 3e-4,-5.763936 0.02245,-9.664854 0.05716,-10.065897 0.134166,-1.55009 0.523331,-3.294695 1.055834,-4.73325 0.327378,-0.884408 1.097642,-2.449178 1.603522,-3.257508 2.714695,-4.337729 7.216135,-7.3638171 12.207057,-8.2061811 1.257112,-0.212174 2.253939,-0.27854 3.581277,-0.238429 2.092343,0.06323 3.827175,0.400388 5.779359,1.123202 0.82746,0.306374 2.409447,1.088703 3.179371,1.5722728 4.077949,2.5612523 6.987552,6.6611083 8.033598,11.3199643 0.325197,1.44835 0.396116,2.151754 0.396116,3.928826 0,1.777072 -0.07092,2.480476 -0.396116,3.928826 -0.4249,1.892412 -1.277862,3.966332 -2.302744,5.598972 -2.539731,4.045801 -6.658349,6.963174 -11.301684,8.005413 -0.344484,0.07732 -0.985053,0.198638 -1.423488,0.269591 l -0.797153,0.129006 -9.836298,0.01814 -1.229538,0.0023 -1.229538,0.0023 -1.229537,0.0023 -1.229537,0.0023 -1.2295377,0.0023 -1.2295374,0.0023 -1.2295375,0.0023 c 0,0 -0.6840336,-0.0063 -0.9678324,-0.289602 C 6.0311862,41.387813 6.0533411,40.786612 6.0533411,40.786612 l 6.12e-5,-1.176386 6.11e-5,-1.176386 6.11e-5,-1.176386 6.11e-5,-1.176386 6.12e-5,-1.176386 6.11e-5,-1.176386 z m 19.487694,-0.742518 c 2.39115,-0.587089 4.277428,-2.081813 5.364511,-4.250942 0.878915,-1.753759 1.03329,-4.074118 0.397472,-5.974234 -0.950584,-2.840779 -3.320231,-4.853263 -6.288632,-5.340787 -0.823894,-0.135314 -2.282977,-0.07878 -3.073789,0.119096 -1.555263,0.389158 -2.811254,1.117301 -3.905238,2.264007 -1.030499,1.080162 -1.681934,2.316425 -2.027738,3.84815 -0.121137,0.536569 -0.125289,0.674803 -0.146184,4.866544 l -0.02151,4.314288 c 0,0 -0.0095,0.157791 0.08722,0.258038 0.09669,0.100248 0.258037,0.08722 0.258037,0.08722 l 4.371556,-0.02047 4.371557,-0.02047 z"
     id="path245"
     sodipodi:nodetypes="scssssssssssssccccccccczcccccccsssssssssczcccs" />
</svg>
